:SAMPLES-PER-SECOND 30
:FULLY-SPECIFIED
:DEGREES
827
root  -36.78 39.9415 6.06933 -59.2401 -84.9448 56.9624
RightUpLeg  -3.57165 -8.46482 -15.3982
RightLeg  11.2722 8.88602 -1.04356
RightFoot  -5.83646 -0.454738 8.61599
RightToes  1.45519e-009 0 -3.6325e-017
Spine  8.69867 -0.787329 -0.0190821
Spine1  1.7032 -1.95893 5.67759
HEad  -3.618 9.75175 -7.6961
LeftShoulder1  -0.587176 4.94549 -34.5473
LeftArm  16.6201 0.903848 -43.5248
LeftForeArm  19.1826 -20.1674 -5.24958
LeftHand  -0.159852 10.862 -2.04462
RightShoulder  -1.27418 -6.80197 32.1073
RightArm  -0.0178696 10.3995 40.5288
RightForeArm  -4.37854 -3.03007 2.32522
RightHand  -0.388472 7.8936 -3.75854
LeftUpLeg  -7.53867 -2.33398 -4.28971
LeftLeg  13.3716 -5.98121 -0.650585
LeftFoot  -2.94135 -0.218953 3.22421
LeftToes  -2.53752e-010 -2.07034e-011 -2.70101e-011
828
root  -36.6467 39.9601 5.76108 -40.7293 -83.2805 38.1818
RightUpLeg  -2.8366 -9.96362 -15.3918
RightLeg  11.6512 7.90377 -0.697332
RightFoot  -6.09679 -0.414887 8.13855
RightToes  1.45519e-009 0 -3.6325e-017
Spine  8.41376 -0.571848 1.32729
Spine1  2.20408 -1.49737 4.80322
HEad  -2.10652 13.3424 -7.82546
LeftShoulder1  -0.649026 5.07718 -35.0702
LeftArm  17.7938 -0.209425 -43.7165
LeftForeArm  19.3575 -20.0076 -5.39946
LeftHand  -0.147191 10.3511 -2.03906
RightShoulder  -1.18794 -6.59572 31.8725
RightArm  3.18551 9.56174 44.3206
RightForeArm  1.06966 -1.22133 3.58618
RightHand  -0.419668 6.98094 -4.28604
LeftUpLeg  -7.432 -3.4065 -4.01923
LeftLeg  12.8804 -7.55717 -0.743974
LeftFoot  -2.40105 -0.188874 2.60162
LeftToes  -2.53752e-010 -2.07034e-011 -2.70101e-011
829
root  -36.5534 39.9774 5.45371 -29.076 -80.9485 26.2579
RightUpLeg  -1.86121 -11.3894 -15.3499
RightLeg  11.8442 6.55048 -0.443435
RightFoot  -6.42576 -0.375489 7.71406
RightToes  1.45519e-009 0 -3.6325e-017
Spine  7.72772 -0.304401 2.55325
Spine1  3.03816 -1.01011 3.97209
HEad  -1.42782 16.4258 -8.09172
LeftShoulder1  -0.615609 4.99428 -35.1033
LeftArm  18.9142 -0.534134 -44.3834
LeftForeArm  18.4327 -20.639 -5.07428
LeftHand  -0.144286 10.9443 -1.68562
RightShoulder  -1.05677 -6.29142 31.3577
RightArm  8.51003 9.90892 47.8212
RightForeArm  6.04483 0.664433 5.8047
RightHand  -0.416406 6.12324 -4.52071
LeftUpLeg  -7.34198 -4.70503 -3.73119
LeftLeg  12.4395 -9.16009 -0.795815
LeftFoot  -1.77017 -0.175467 2.22185
LeftToes  -2.53752e-010 -2.07034e-011 -2.70101e-011
830
root  -36.4447 39.9573 5.14668 -20.2993 -77.8556 17.2821
RightUpLeg  -0.952958 -12.9644 -15.2482
RightLeg  12.3826 4.77181 -0.0629537
RightFoot  -6.97371 -0.32755 7.3348
RightToes  1.45519e-009 0 -3.6325e-017
Spine  7.15885 -0.0469181 4.5569
Spine1  3.47543 -0.290561 2.30008
HEad  -0.853831 17.0491 -7.42802
LeftShoulder1  -0.521657 4.77927 -34.7342
LeftArm  18.6842 -1.04567 -45.2891
LeftForeArm  19.384 -20.5844 -5.06265
LeftHand  -0.106809 9.46553 -1.48741
RightShoulder  -1.00591 -6.14722 31.468
RightArm  13.9969 10.7729 50.5046
RightForeArm  10.565 3.1659 8.02428
RightHand  -0.416795 6.40877 -4.4348
LeftUpLeg  -7.86539 -6.87703 -3.16143
LeftLeg  12.7653 -10.5409 -1.20724
LeftFoot  -1.44065 -0.152489 1.86173
LeftToes  -2.53752e-010 -2.07034e-011 -2.70101e-011
831
root  -36.3454 39.9276 4.84581 -15.2807 -74.1594 12.1849
RightUpLeg  -0.217703 -14.0056 -15.1586
RightLeg  13.1318 2.02333 -0.0173618
RightFoot  -7.62969 -0.28284 7.1165
RightToes  1.45519e-009 0 -3.6325e-017
Spine  6.73376 0.287343 5.98579
Spine1  3.64571 0.361748 1.19628
HEad  -0.13271 17.2615 -7.11856
LeftShoulder1  -0.533251 4.80499 -34.8089
LeftArm  20.3067 -1.91733 -45.8232
LeftForeArm  18.3134 -20.7097 -5.08419
LeftHand  -0.103038 9.30983 -1.46502
RightShoulder  -0.923684 -5.96505 30.9328
RightArm  19.276 11.7038 52.9305
RightForeArm  13.6036 6.77842 9.51195
RightHand  -0.359041 6.73454 -3.77862
LeftUpLeg  -8.47581 -9.04419 -2.75664
LeftLeg  12.8753 -12.3047 -1.68233
LeftFoot  -1.04576 -0.115189 1.34804
LeftToes  -2.53752e-010 -2.07034e-011 -2.70101e-011
832
root  -36.2825 39.9027 4.54032 -12.3652 -70.2592 9.00581
RightUpLeg  0.821709 -14.7455 -15.0053
RightLeg  13.7265 -1.04379 -0.217846
RightFoot  -8.22221 -0.244461 6.91628
RightToes  1.45519e-009 0 -3.6325e-017
Spine  6.50209 0.636749 7.19779
Spine1  3.65389 1.06476 -0.0767796
HEad  0.841293 14.4907 -5.93971
LeftShoulder1  -0.492733 4.71998 -34.3454
LeftArm  20.7937 -2.2336 -46.4956
LeftForeArm  18.6992 -20.8435 -4.99792
LeftHand  -0.104633 9.07168 -1.51033
RightShoulder  -0.867257 -5.81859 30.8455
RightArm  26.444 12.6278 54.6441
RightForeArm  11.0122 11.0633 9.66881
RightHand  -0.374559 7.07183 -3.83701
LeftUpLeg  -8.78826 -10.7793 -2.43291
LeftLeg  12.8002 -14.5629 -2.15482
LeftFoot  -0.670558 -0.0560443 0.646005
LeftToes  -2.53752e-010 -2.07034e-011 -2.70101e-011
833
root  -36.2706 39.911 4.25403 -10.5311 -65.8081 6.81406
RightUpLeg  2.43632 -15.6211 -15.0323
RightLeg  13.796 -4.43661 -0.395786
RightFoot  -8.61732 -0.21897 6.7357
RightToes  1.45519e-009 0 -3.6325e-017
Spine  5.87255 0.926183 7.92031
Spine1  4.24465 1.58998 -1.07844
HEad  2.26288 10.1675 -4.29299
LeftShoulder1  -0.416223 4.54365 -33.8854
LeftArm  21.8336 -2.42333 -46.9773
LeftForeArm  18.7506 -21.1875 -4.84226
LeftHand  -0.0499322 6.83165 -0.606949
RightShoulder  -0.874289 -5.835 30.8844
RightArm  33.3692 14.069 55.7315
RightForeArm  4.77076 14.5199 8.81843
RightHand  -0.411137 7.55486 -4.0441
LeftUpLeg  -8.65122 -11.727 -2.51199
LeftLeg  12.1897 -18.0831 -2.31602
LeftFoot  -0.0356345 0.00760908 -0.075572
LeftToes  -2.53752e-010 -2.07034e-011 -2.70101e-011
834
root  -36.208 39.8856 3.95054 -8.86624 -61.881 5.30604
RightUpLeg  2.76035 -16.1128 -14.5198
RightLeg  14.5708 -7.8216 -0.933271
RightFoot  -9.15198 -0.189171 6.63798
RightToes  1.45519e-009 0 -3.6325e-017
Spine  5.64121 1.43965 8.64977
Spine1  3.97388 2.33643 -1.99769
HEad  2.99038 10.2623 -4.42984
LeftShoulder1  -0.40298 4.52576 -33.286
LeftArm  23.9161 -2.30552 -47.065
LeftForeArm  17.1219 -22.35 -4.34921
LeftHand  -0.142305 10.2169 -1.99859
RightShoulder  -0.91076 -5.91366 31.1854
RightArm  37.469 15.6231 56.1838
RightForeArm  0.402726 17.0768 7.64118
RightHand  -0.46715 8.3806 -4.30665
LeftUpLeg  -9.40321 -12.9866 -2.19736
LeftLeg  11.9627 -20.6772 -2.6263
LeftFoot  0.271002 0.0958099 -0.95902
LeftToes  -2.53752e-010 -2.07034e-011 -2.70101e-011
835
root  -36.1705 39.8478 3.70456 -7.98203 -57.721 4.38809
RightUpLeg  3.3745 -16.9505 -14.3764
RightLeg  15.4704 -10.9117 -1.5112
RightFoot  -9.74877 -0.157581 6.55806
RightToes  1.45519e-009 0 -3.6325e-017
Spine  5.24207 1.87225 9.35199
Spine1  4.21024 3.00317 -2.93808
HEad  3.82028 10.1533 -4.50577
LeftShoulder1  -0.374068 4.45392 -33.2235
LeftArm  24.6655 -2.96221 -46.8252
LeftForeArm  17.7999 -22.594 -4.27364
LeftHand  -0.0926947 8.59573 -1.56348
RightShoulder  -0.937141 -5.9961 30.9915
RightArm  40.8583 16.9815 56.2807
RightForeArm  -3.18764 19.4981 6.4489
RightHand  -0.508022 8.67163 -4.56794
LeftUpLeg  -9.93535 -14.9956 -2.20243
LeftLeg  11.8598 -22.5989 -2.82693
LeftFoot  0.533828 0.167389 -1.64191
LeftToes  -2.53752e-010 -2.07034e-011 -2.70101e-011
836
root  -36.1645 39.8254 3.47904 -7.48557 -54.0754 3.46523
RightUpLeg  4.39102 -17.6173 -14.1128
RightLeg  16.0425 -13.5362 -1.97488
RightFoot  -10.2332 -0.130094 6.24552
RightToes  1.45519e-009 0 -3.6325e-017
Spine  5.38271 2.28684 10.0512
Spine1  4.34294 3.63403 -3.60012
HEad  5.18737 10.8264 -4.58067
LeftShoulder1  -0.428032 4.58211 -33.555
LeftArm  24.9034 -3.44008 -46.0466
LeftForeArm  19.6387 -24.0242 -4.09575
LeftHand  -0.0886187 8.47876 -1.51885
RightShoulder  -0.816684 -5.72945 30.0696
RightArm  41.5709 17.5808 56.3599
RightForeArm  -3.92875 21.4945 5.51886
RightHand  -0.468779 8.15357 -4.38513
LeftUpLeg  -9.96873 -15.951 -2.16534
LeftLeg  11.7401 -24.7135 -3.02037
LeftFoot  0.573813 0.262493 -2.54967
LeftToes  -2.53752e-010 -2.07034e-011 -2.70101e-011
837
root  -36.217 39.8078 3.24347 -7.23315 -50.7996 2.60957
RightUpLeg  5.4782 -17.7728 -13.5443
RightLeg  16.5389 -16.2089 -2.59146
RightFoot  -10.7899 -0.101328 5.81899
RightToes  1.45519e-009 0 -3.6325e-017
Spine  5.57934 2.71647 10.5206
Spine1  4.6595 4.28274 -4.15496
HEad  6.89345 11.8029 -4.77822
LeftShoulder1  -0.468799 4.69589 -33.1724
LeftArm  25.1648 -4.32776 -45.2842
LeftForeArm  22.9604 -26.3535 -4.4306
LeftHand  -0.104459 8.29721 -2.2078
RightShoulder  -0.788602 -5.66854 29.7896
RightArm  41.1087 18.0537 55.9179
RightForeArm  -3.36205 23.0892 5.19914
RightHand  -0.49125 8.41512 -4.49802
LeftUpLeg  -9.84337 -16.7539 -1.96719
LeftLeg  11.7943 -26.2014 -3.30953
LeftFoot  0.624118 0.337133 -3.25287
LeftToes  -2.53752e-010 -2.07034e-011 -2.70101e-011
838
root  -36.2474 39.7682 3.06287 -6.74564 -47.7922 2.08022
RightUpLeg  5.73086 -18.2017 -13.066
RightLeg  17.3754 -18.2551 -3.15203
RightFoot  -11.5153 -0.0698326 5.49415
RightToes  1.45519e-009 0 -3.6325e-017
Spine  5.03587 3.22119 11.4029
Spine1  5.21809 5.07938 -5.20756
HEad  9.10026 13.0086 -4.6043
LeftShoulder1  -0.435879 4.63342 -32.4454
LeftArm  25.0715 -5.45243 -44.9695
LeftForeArm  25.9625 -29.1846 -4.9012
LeftHand  -0.123892 8.82161 -2.44333
RightShoulder  -0.818054 -5.74513 29.8715
RightArm  39.0199 17.9158 55.1357
RightForeArm  -2.03637 24.7193 5.38258
RightHand  -0.586666 8.34546 -5.32518
LeftUpLeg  -10.3278 -17.4476 -1.69644
LeftLeg  11.8205 -27.471 -3.72534
LeftFoot  0.742718 0.407873 -3.89623
LeftToes  -2.53752e-010 -2.07034e-011 -2.70101e-011
